<?xml version="1.0" encoding="UTF-8" standalone="no"?>
<!DOCTYPE svg PUBLIC "-//W3C//DTD SVG 1.1//EN"
 "http://www.w3.org/Graphics/SVG/1.1/DTD/svg11.dtd">
<!-- Generated by graphviz version 2.47.0 (20210316.0004)
 -->
<!-- Title: dbml Pages: 1 -->
<svg width="1943pt" height="2120pt"
 viewBox="0.00 0.00 1942.52 2120.49" xmlns="http://www.w3.org/2000/svg" xmlns:xlink="http://www.w3.org/1999/xlink">
<g id="graph0" class="graph" transform="scale(1 1) rotate(0) translate(4 2116.49)">
<title>dbml</title>
<!-- user -->
<g id="user" class="node">
<title>user</title>
<ellipse fill="none" stroke="black" stroke-width="0" cx="1638.95" cy="-1320.53" rx="295.64" ry="257.27"/>
<polygon fill="#1d71b8" stroke="transparent" points="1431.95,-1440.53 1431.95,-1500.53 1845.95,-1500.53 1845.95,-1440.53 1431.95,-1440.53"/>
<polygon fill="none" stroke="#29235c" points="1431.95,-1440.53 1431.95,-1500.53 1845.95,-1500.53 1845.95,-1440.53 1431.95,-1440.53"/>
<text text-anchor="start" x="1545.58" y="-1461.73" font-family="Helvetica,sans-Serif" font-weight="bold" font-size="32.00" fill="#ffffff"> &#160;&#160;&#160;&#160;&#160;&#160;user &#160;&#160;&#160;&#160;&#160;&#160;</text>
<polygon fill="#e7e2dd" stroke="transparent" points="1431.95,-1380.53 1431.95,-1440.53 1845.95,-1440.53 1845.95,-1380.53 1431.95,-1380.53"/>
<polygon fill="none" stroke="#29235c" points="1431.95,-1380.53 1431.95,-1440.53 1845.95,-1440.53 1845.95,-1380.53 1431.95,-1380.53"/>
<text text-anchor="start" x="1442.95" y="-1401.73" font-family="Helvetica,sans-Serif" font-weight="bold" font-size="32.00" fill="#29235c">id</text>
<text text-anchor="start" x="1467.84" y="-1401.73" font-family="Helvetica,sans-Serif" font-size="32.00" fill="#29235c"> &#160;&#160;&#160;</text>
<text text-anchor="start" x="1740.73" y="-1401.73" font-family="Helvetica,sans-Serif" font-style="italic" font-size="32.00" fill="#29235c">serial4</text>
<polygon fill="#e7e2dd" stroke="transparent" points="1431.95,-1320.53 1431.95,-1380.53 1845.95,-1380.53 1845.95,-1320.53 1431.95,-1320.53"/>
<polygon fill="none" stroke="#29235c" points="1431.95,-1320.53 1431.95,-1380.53 1845.95,-1380.53 1845.95,-1320.53 1431.95,-1320.53"/>
<text text-anchor="start" x="1442.95" y="-1340.73" font-family="Helvetica,sans-Serif" font-size="32.00" fill="#29235c">name &#160;&#160;&#160;</text>
<text text-anchor="start" x="1653.6" y="-1341.73" font-family="Helvetica,sans-Serif" font-style="italic" font-size="32.00" fill="#29235c">varchar(255)</text>
<polygon fill="#e7e2dd" stroke="transparent" points="1431.95,-1260.53 1431.95,-1320.53 1845.95,-1320.53 1845.95,-1260.53 1431.95,-1260.53"/>
<polygon fill="none" stroke="#29235c" points="1431.95,-1260.53 1431.95,-1320.53 1845.95,-1320.53 1845.95,-1260.53 1431.95,-1260.53"/>
<text text-anchor="start" x="1442.95" y="-1280.73" font-family="Helvetica,sans-Serif" font-size="32.00" fill="#29235c">email &#160;&#160;&#160;</text>
<text text-anchor="start" x="1653.6" y="-1281.73" font-family="Helvetica,sans-Serif" font-style="italic" font-size="32.00" fill="#29235c">varchar(255)</text>
<polygon fill="#e7e2dd" stroke="transparent" points="1431.95,-1200.53 1431.95,-1260.53 1845.95,-1260.53 1845.95,-1200.53 1431.95,-1200.53"/>
<polygon fill="none" stroke="#29235c" points="1431.95,-1200.53 1431.95,-1260.53 1845.95,-1260.53 1845.95,-1200.53 1431.95,-1200.53"/>
<text text-anchor="start" x="1442.72" y="-1220.73" font-family="Helvetica,sans-Serif" font-size="32.00" fill="#29235c">emailVerified &#160;&#160;&#160;</text>
<text text-anchor="start" x="1662.72" y="-1221.73" font-family="Helvetica,sans-Serif" font-style="italic" font-size="32.00" fill="#29235c">timestamptz</text>
<polygon fill="#e7e2dd" stroke="transparent" points="1431.95,-1140.53 1431.95,-1200.53 1845.95,-1200.53 1845.95,-1140.53 1431.95,-1140.53"/>
<polygon fill="none" stroke="#29235c" points="1431.95,-1140.53 1431.95,-1200.53 1845.95,-1200.53 1845.95,-1140.53 1431.95,-1140.53"/>
<text text-anchor="start" x="1442.95" y="-1160.73" font-family="Helvetica,sans-Serif" font-size="32.00" fill="#29235c">image &#160;&#160;&#160;</text>
<text text-anchor="start" x="1783.37" y="-1161.73" font-family="Helvetica,sans-Serif" font-style="italic" font-size="32.00" fill="#29235c">text</text>
<polygon fill="none" stroke="#29235c" stroke-width="2" points="1430.95,-1139.53 1430.95,-1501.53 1846.95,-1501.53 1846.95,-1139.53 1430.95,-1139.53"/>
</g>
<!-- session -->
<g id="session" class="node">
<title>session</title>
<ellipse fill="none" stroke="black" stroke-width="0" cx="953.82" cy="-1897.53" rx="337.99" ry="214.92"/>
<polygon fill="#1d71b8" stroke="transparent" points="716.82,-1987.53 716.82,-2047.53 1190.82,-2047.53 1190.82,-1987.53 716.82,-1987.53"/>
<polygon fill="none" stroke="#29235c" points="716.82,-1987.53 716.82,-2047.53 1190.82,-2047.53 1190.82,-1987.53 716.82,-1987.53"/>
<text text-anchor="start" x="837.34" y="-2008.73" font-family="Helvetica,sans-Serif" font-weight="bold" font-size="32.00" fill="#ffffff"> &#160;&#160;&#160;&#160;&#160;&#160;session &#160;&#160;&#160;&#160;&#160;&#160;</text>
<polygon fill="#e7e2dd" stroke="transparent" points="716.82,-1927.53 716.82,-1987.53 1190.82,-1987.53 1190.82,-1927.53 716.82,-1927.53"/>
<polygon fill="none" stroke="#29235c" points="716.82,-1927.53 716.82,-1987.53 1190.82,-1987.53 1190.82,-1927.53 716.82,-1927.53"/>
<text text-anchor="start" x="727.82" y="-1948.73" font-family="Helvetica,sans-Serif" font-weight="bold" font-size="32.00" fill="#29235c">id</text>
<text text-anchor="start" x="752.71" y="-1948.73" font-family="Helvetica,sans-Serif" font-size="32.00" fill="#29235c"> &#160;&#160;&#160;</text>
<text text-anchor="start" x="1085.6" y="-1948.73" font-family="Helvetica,sans-Serif" font-style="italic" font-size="32.00" fill="#29235c">serial4</text>
<polygon fill="#e7e2dd" stroke="transparent" points="716.82,-1867.53 716.82,-1927.53 1190.82,-1927.53 1190.82,-1867.53 716.82,-1867.53"/>
<polygon fill="none" stroke="#29235c" points="716.82,-1867.53 716.82,-1927.53 1190.82,-1927.53 1190.82,-1867.53 716.82,-1867.53"/>
<text text-anchor="start" x="727.82" y="-1887.73" font-family="Helvetica,sans-Serif" font-size="32.00" fill="#29235c">userId &#160;&#160;&#160;</text>
<text text-anchor="start" x="1089.16" y="-1888.73" font-family="Helvetica,sans-Serif" font-style="italic" font-size="32.00" fill="#29235c">int4</text>
<text text-anchor="start" x="1140.73" y="-1888.73" font-family="Helvetica,sans-Serif" font-size="32.00" fill="#29235c"> </text>
<text text-anchor="start" x="1149.63" y="-1888.73" font-family="Helvetica,sans-Serif" font-weight="bold" font-size="32.00" fill="#29235c">(!)</text>
<polygon fill="#e7e2dd" stroke="transparent" points="716.82,-1807.53 716.82,-1867.53 1190.82,-1867.53 1190.82,-1807.53 716.82,-1807.53"/>
<polygon fill="none" stroke="#29235c" points="716.82,-1807.53 716.82,-1867.53 1190.82,-1867.53 1190.82,-1807.53 716.82,-1807.53"/>
<text text-anchor="start" x="727.82" y="-1827.73" font-family="Helvetica,sans-Serif" font-size="32.00" fill="#29235c">expires &#160;&#160;&#160;</text>
<text text-anchor="start" x="968.28" y="-1828.73" font-family="Helvetica,sans-Serif" font-style="italic" font-size="32.00" fill="#29235c">timestamptz</text>
<text text-anchor="start" x="1140.73" y="-1828.73" font-family="Helvetica,sans-Serif" font-size="32.00" fill="#29235c"> </text>
<text text-anchor="start" x="1149.63" y="-1828.73" font-family="Helvetica,sans-Serif" font-weight="bold" font-size="32.00" fill="#29235c">(!)</text>
<polygon fill="#e7e2dd" stroke="transparent" points="716.82,-1747.53 716.82,-1807.53 1190.82,-1807.53 1190.82,-1747.53 716.82,-1747.53"/>
<polygon fill="none" stroke="#29235c" points="716.82,-1747.53 716.82,-1807.53 1190.82,-1807.53 1190.82,-1747.53 716.82,-1747.53"/>
<text text-anchor="start" x="727.35" y="-1767.73" font-family="Helvetica,sans-Serif" font-size="32.00" fill="#29235c">sessionToken &#160;&#160;&#160;</text>
<text text-anchor="start" x="959.61" y="-1768.73" font-family="Helvetica,sans-Serif" font-style="italic" font-size="32.00" fill="#29235c">varchar(255)</text>
<text text-anchor="start" x="1140.95" y="-1768.73" font-family="Helvetica,sans-Serif" font-size="32.00" fill="#29235c"> </text>
<text text-anchor="start" x="1149.84" y="-1768.73" font-family="Helvetica,sans-Serif" font-weight="bold" font-size="32.00" fill="#29235c">(!)</text>
<polygon fill="none" stroke="#29235c" stroke-width="2" points="715.82,-1746.53 715.82,-2048.53 1191.82,-2048.53 1191.82,-1746.53 715.82,-1746.53"/>
</g>
<!-- session&#45;&gt;user -->
<!-- session&#45;&gt;user -->
<g id="edge2" class="edge">
<title>session:e&#45;&gt;user:w</title>
<path fill="none" stroke="#29235c" stroke-width="3" d="M1191.82,-1897.53C1429.42,-1897.53 1196.84,-1424.7 1420.66,-1410.84"/>
<polygon fill="#29235c" stroke="#29235c" stroke-width="3" points="1421.06,-1414.33 1430.95,-1410.53 1420.85,-1407.34 1421.06,-1414.33"/>
<text text-anchor="middle" x="1422.05" y="-1420.13" font-family="Helvetica,sans-Serif" font-size="32.00" fill="#29235c">1</text>
<text text-anchor="middle" x="1182.93" y="-1907.13" font-family="Helvetica,sans-Serif" font-size="32.00" fill="#29235c">1</text>
</g>
<!-- verification_token -->
<g id="verification_token" class="node">
<title>verification_token</title>
<ellipse fill="none" stroke="black" stroke-width="0" cx="282.14" cy="-898.53" rx="282.27" ry="172.57"/>
<polygon fill="#1d71b8" stroke="transparent" points="85.14,-958.53 85.14,-1018.53 480.14,-1018.53 480.14,-958.53 85.14,-958.53"/>
<polygon fill="none" stroke="#29235c" points="85.14,-958.53 85.14,-1018.53 480.14,-1018.53 480.14,-958.53 85.14,-958.53"/>
<text text-anchor="start" x="95.91" y="-979.73" font-family="Helvetica,sans-Serif" font-weight="bold" font-size="32.00" fill="#ffffff"> &#160;&#160;&#160;&#160;&#160;&#160;verification_token &#160;&#160;&#160;&#160;&#160;&#160;</text>
<polygon fill="#e7e2dd" stroke="transparent" points="85.14,-898.53 85.14,-958.53 480.14,-958.53 480.14,-898.53 85.14,-898.53"/>
<polygon fill="none" stroke="#29235c" points="85.14,-898.53 85.14,-958.53 480.14,-958.53 480.14,-898.53 85.14,-898.53"/>
<text text-anchor="start" x="96.14" y="-918.73" font-family="Helvetica,sans-Serif" font-size="32.00" fill="#29235c">identifier &#160;&#160;&#160;</text>
<text text-anchor="start" x="378.47" y="-919.73" font-family="Helvetica,sans-Serif" font-style="italic" font-size="32.00" fill="#29235c">text</text>
<text text-anchor="start" x="430.04" y="-919.73" font-family="Helvetica,sans-Serif" font-size="32.00" fill="#29235c"> </text>
<text text-anchor="start" x="438.94" y="-919.73" font-family="Helvetica,sans-Serif" font-weight="bold" font-size="32.00" fill="#29235c">(!)</text>
<polygon fill="#e7e2dd" stroke="transparent" points="85.14,-838.53 85.14,-898.53 480.14,-898.53 480.14,-838.53 85.14,-838.53"/>
<polygon fill="none" stroke="#29235c" points="85.14,-838.53 85.14,-898.53 480.14,-898.53 480.14,-838.53 85.14,-838.53"/>
<text text-anchor="start" x="96.14" y="-858.73" font-family="Helvetica,sans-Serif" font-size="32.00" fill="#29235c">expires &#160;&#160;&#160;</text>
<text text-anchor="start" x="257.59" y="-859.73" font-family="Helvetica,sans-Serif" font-style="italic" font-size="32.00" fill="#29235c">timestamptz</text>
<text text-anchor="start" x="430.04" y="-859.73" font-family="Helvetica,sans-Serif" font-size="32.00" fill="#29235c"> </text>
<text text-anchor="start" x="438.94" y="-859.73" font-family="Helvetica,sans-Serif" font-weight="bold" font-size="32.00" fill="#29235c">(!)</text>
<polygon fill="#e7e2dd" stroke="transparent" points="85.14,-778.53 85.14,-838.53 480.14,-838.53 480.14,-778.53 85.14,-778.53"/>
<polygon fill="none" stroke="#29235c" points="85.14,-778.53 85.14,-838.53 480.14,-838.53 480.14,-778.53 85.14,-778.53"/>
<text text-anchor="start" x="96.14" y="-798.73" font-family="Helvetica,sans-Serif" font-size="32.00" fill="#29235c">token &#160;&#160;&#160;</text>
<text text-anchor="start" x="378.47" y="-799.73" font-family="Helvetica,sans-Serif" font-style="italic" font-size="32.00" fill="#29235c">text</text>
<text text-anchor="start" x="430.04" y="-799.73" font-family="Helvetica,sans-Serif" font-size="32.00" fill="#29235c"> </text>
<text text-anchor="start" x="438.94" y="-799.73" font-family="Helvetica,sans-Serif" font-weight="bold" font-size="32.00" fill="#29235c">(!)</text>
<polygon fill="none" stroke="#29235c" stroke-width="2" points="83.64,-777.53 83.64,-1019.53 480.64,-1019.53 480.64,-777.53 83.64,-777.53"/>
</g>
<!-- accounts -->
<g id="accounts" class="node">
<title>accounts</title>
<ellipse fill="none" stroke="black" stroke-width="0" cx="953.82" cy="-1110.53" rx="353.61" ry="554.24"/>
<polygon fill="#1d71b8" stroke="transparent" points="705.82,-1440.53 705.82,-1500.53 1201.82,-1500.53 1201.82,-1440.53 705.82,-1440.53"/>
<polygon fill="none" stroke="#29235c" points="705.82,-1440.53 705.82,-1500.53 1201.82,-1500.53 1201.82,-1440.53 705.82,-1440.53"/>
<text text-anchor="start" x="827.55" y="-1461.73" font-family="Helvetica,sans-Serif" font-weight="bold" font-size="32.00" fill="#ffffff"> &#160;&#160;&#160;&#160;&#160;&#160;accounts &#160;&#160;&#160;&#160;&#160;&#160;</text>
<polygon fill="#e7e2dd" stroke="transparent" points="705.82,-1380.53 705.82,-1440.53 1201.82,-1440.53 1201.82,-1380.53 705.82,-1380.53"/>
<polygon fill="none" stroke="#29235c" points="705.82,-1380.53 705.82,-1440.53 1201.82,-1440.53 1201.82,-1380.53 705.82,-1380.53"/>
<text text-anchor="start" x="716.82" y="-1401.73" font-family="Helvetica,sans-Serif" font-weight="bold" font-size="32.00" fill="#29235c">id</text>
<text text-anchor="start" x="741.71" y="-1401.73" font-family="Helvetica,sans-Serif" font-size="32.00" fill="#29235c"> &#160;&#160;&#160;</text>
<text text-anchor="start" x="1096.6" y="-1401.73" font-family="Helvetica,sans-Serif" font-style="italic" font-size="32.00" fill="#29235c">serial4</text>
<polygon fill="#e7e2dd" stroke="transparent" points="705.82,-1320.53 705.82,-1380.53 1201.82,-1380.53 1201.82,-1320.53 705.82,-1320.53"/>
<polygon fill="none" stroke="#29235c" points="705.82,-1320.53 705.82,-1380.53 1201.82,-1380.53 1201.82,-1320.53 705.82,-1320.53"/>
<text text-anchor="start" x="716.82" y="-1340.73" font-family="Helvetica,sans-Serif" font-size="32.00" fill="#29235c">userId &#160;&#160;&#160;</text>
<text text-anchor="start" x="1139.25" y="-1341.73" font-family="Helvetica,sans-Serif" font-style="italic" font-size="32.00" fill="#29235c">int4</text>
<polygon fill="#e7e2dd" stroke="transparent" points="705.82,-1260.53 705.82,-1320.53 1201.82,-1320.53 1201.82,-1260.53 705.82,-1260.53"/>
<polygon fill="none" stroke="#29235c" points="705.82,-1260.53 705.82,-1320.53 1201.82,-1320.53 1201.82,-1260.53 705.82,-1260.53"/>
<text text-anchor="start" x="716.82" y="-1280.73" font-family="Helvetica,sans-Serif" font-size="32.00" fill="#29235c">type &#160;&#160;&#160;</text>
<text text-anchor="start" x="1009.48" y="-1281.73" font-family="Helvetica,sans-Serif" font-style="italic" font-size="32.00" fill="#29235c">varchar(255)</text>
<polygon fill="#e7e2dd" stroke="transparent" points="705.82,-1200.53 705.82,-1260.53 1201.82,-1260.53 1201.82,-1200.53 705.82,-1200.53"/>
<polygon fill="none" stroke="#29235c" points="705.82,-1200.53 705.82,-1260.53 1201.82,-1260.53 1201.82,-1200.53 705.82,-1200.53"/>
<text text-anchor="start" x="716.82" y="-1220.73" font-family="Helvetica,sans-Serif" font-size="32.00" fill="#29235c">provider &#160;&#160;&#160;</text>
<text text-anchor="start" x="1009.48" y="-1221.73" font-family="Helvetica,sans-Serif" font-style="italic" font-size="32.00" fill="#29235c">varchar(255)</text>
<polygon fill="#e7e2dd" stroke="transparent" points="705.82,-1140.53 705.82,-1200.53 1201.82,-1200.53 1201.82,-1140.53 705.82,-1140.53"/>
<polygon fill="none" stroke="#29235c" points="705.82,-1140.53 705.82,-1200.53 1201.82,-1200.53 1201.82,-1140.53 705.82,-1140.53"/>
<text text-anchor="start" x="716.62" y="-1160.73" font-family="Helvetica,sans-Serif" font-size="32.00" fill="#29235c">providerAccountId &#160;&#160;&#160;</text>
<text text-anchor="start" x="1009.65" y="-1161.73" font-family="Helvetica,sans-Serif" font-style="italic" font-size="32.00" fill="#29235c">varchar(255)</text>
<polygon fill="#e7e2dd" stroke="transparent" points="705.82,-1080.53 705.82,-1140.53 1201.82,-1140.53 1201.82,-1080.53 705.82,-1080.53"/>
<polygon fill="none" stroke="#29235c" points="705.82,-1080.53 705.82,-1140.53 1201.82,-1140.53 1201.82,-1080.53 705.82,-1080.53"/>
<text text-anchor="start" x="716.82" y="-1100.73" font-family="Helvetica,sans-Serif" font-size="32.00" fill="#29235c">refresh_token &#160;&#160;&#160;</text>
<text text-anchor="start" x="1139.25" y="-1101.73" font-family="Helvetica,sans-Serif" font-style="italic" font-size="32.00" fill="#29235c">text</text>
<polygon fill="#e7e2dd" stroke="transparent" points="705.82,-1020.53 705.82,-1080.53 1201.82,-1080.53 1201.82,-1020.53 705.82,-1020.53"/>
<polygon fill="none" stroke="#29235c" points="705.82,-1020.53 705.82,-1080.53 1201.82,-1080.53 1201.82,-1020.53 705.82,-1020.53"/>
<text text-anchor="start" x="716.82" y="-1040.73" font-family="Helvetica,sans-Serif" font-size="32.00" fill="#29235c">access_token &#160;&#160;&#160;</text>
<text text-anchor="start" x="1139.25" y="-1041.73" font-family="Helvetica,sans-Serif" font-style="italic" font-size="32.00" fill="#29235c">text</text>
<polygon fill="#e7e2dd" stroke="transparent" points="705.82,-960.53 705.82,-1020.53 1201.82,-1020.53 1201.82,-960.53 705.82,-960.53"/>
<polygon fill="none" stroke="#29235c" points="705.82,-960.53 705.82,-1020.53 1201.82,-1020.53 1201.82,-960.53 705.82,-960.53"/>
<text text-anchor="start" x="716.82" y="-980.73" font-family="Helvetica,sans-Serif" font-size="32.00" fill="#29235c">expires_at &#160;&#160;&#160;</text>
<text text-anchor="start" x="1139.25" y="-981.73" font-family="Helvetica,sans-Serif" font-style="italic" font-size="32.00" fill="#29235c">int8</text>
<polygon fill="#e7e2dd" stroke="transparent" points="705.82,-900.53 705.82,-960.53 1201.82,-960.53 1201.82,-900.53 705.82,-900.53"/>
<polygon fill="none" stroke="#29235c" points="705.82,-900.53 705.82,-960.53 1201.82,-960.53 1201.82,-900.53 705.82,-900.53"/>
<text text-anchor="start" x="716.82" y="-920.73" font-family="Helvetica,sans-Serif" font-size="32.00" fill="#29235c">id_token &#160;&#160;&#160;</text>
<text text-anchor="start" x="1139.25" y="-921.73" font-family="Helvetica,sans-Serif" font-style="italic" font-size="32.00" fill="#29235c">text</text>
<polygon fill="#e7e2dd" stroke="transparent" points="705.82,-840.53 705.82,-900.53 1201.82,-900.53 1201.82,-840.53 705.82,-840.53"/>
<polygon fill="none" stroke="#29235c" points="705.82,-840.53 705.82,-900.53 1201.82,-900.53 1201.82,-840.53 705.82,-840.53"/>
<text text-anchor="start" x="716.82" y="-860.73" font-family="Helvetica,sans-Serif" font-size="32.00" fill="#29235c">scope &#160;&#160;&#160;</text>
<text text-anchor="start" x="1139.25" y="-861.73" font-family="Helvetica,sans-Serif" font-style="italic" font-size="32.00" fill="#29235c">text</text>
<polygon fill="#e7e2dd" stroke="transparent" points="705.82,-780.53 705.82,-840.53 1201.82,-840.53 1201.82,-780.53 705.82,-780.53"/>
<polygon fill="none" stroke="#29235c" points="705.82,-780.53 705.82,-840.53 1201.82,-840.53 1201.82,-780.53 705.82,-780.53"/>
<text text-anchor="start" x="716.82" y="-800.73" font-family="Helvetica,sans-Serif" font-size="32.00" fill="#29235c">session_state &#160;&#160;&#160;</text>
<text text-anchor="start" x="1139.25" y="-801.73" font-family="Helvetica,sans-Serif" font-style="italic" font-size="32.00" fill="#29235c">text</text>
<polygon fill="#e7e2dd" stroke="transparent" points="705.82,-720.53 705.82,-780.53 1201.82,-780.53 1201.82,-720.53 705.82,-720.53"/>
<polygon fill="none" stroke="#29235c" points="705.82,-720.53 705.82,-780.53 1201.82,-780.53 1201.82,-720.53 705.82,-720.53"/>
<text text-anchor="start" x="716.82" y="-740.73" font-family="Helvetica,sans-Serif" font-size="32.00" fill="#29235c">token_type &#160;&#160;&#160;</text>
<text text-anchor="start" x="1139.25" y="-741.73" font-family="Helvetica,sans-Serif" font-style="italic" font-size="32.00" fill="#29235c">text</text>
<polygon fill="none" stroke="#29235c" stroke-width="2" points="704.82,-719.53 704.82,-1501.53 1202.82,-1501.53 1202.82,-719.53 704.82,-719.53"/>
</g>
<!-- accounts&#45;&gt;user -->
<!-- accounts&#45;&gt;user -->
<g id="edge4" class="edge">
<title>accounts:e&#45;&gt;user:w</title>
<path fill="none" stroke="#29235c" stroke-width="3" d="M1202.82,-1350.53C1304.18,-1350.53 1324.79,-1406.62 1420.79,-1410.34"/>
<polygon fill="#29235c" stroke="#29235c" stroke-width="3" points="1420.88,-1413.84 1430.95,-1410.53 1421.02,-1406.84 1420.88,-1413.84"/>
<text text-anchor="middle" x="1439.84" y="-1420.13" font-family="Helvetica,sans-Serif" font-size="32.00" fill="#29235c">1</text>
<text text-anchor="middle" x="1193.93" y="-1360.13" font-family="Helvetica,sans-Serif" font-size="32.00" fill="#29235c">1</text>
</g>
<!-- entry -->
<g id="entry" class="node">
<title>entry</title>
<ellipse fill="none" stroke="black" stroke-width="0" cx="953.82" cy="-323.53" rx="236.35" ry="214.92"/>
<polygon fill="#1d71b8" stroke="transparent" points="788.82,-413.53 788.82,-473.53 1118.82,-473.53 1118.82,-413.53 788.82,-413.53"/>
<polygon fill="none" stroke="#29235c" points="788.82,-413.53 788.82,-473.53 1118.82,-473.53 1118.82,-413.53 788.82,-413.53"/>
<text text-anchor="start" x="856.01" y="-434.73" font-family="Helvetica,sans-Serif" font-weight="bold" font-size="32.00" fill="#ffffff"> &#160;&#160;&#160;&#160;&#160;&#160;entry &#160;&#160;&#160;&#160;&#160;&#160;</text>
<polygon fill="#e7e2dd" stroke="transparent" points="788.82,-353.53 788.82,-413.53 1118.82,-413.53 1118.82,-353.53 788.82,-353.53"/>
<polygon fill="none" stroke="#29235c" points="788.82,-353.53 788.82,-413.53 1118.82,-413.53 1118.82,-353.53 788.82,-353.53"/>
<text text-anchor="start" x="799.82" y="-374.73" font-family="Helvetica,sans-Serif" font-weight="bold" font-size="32.00" fill="#29235c">id</text>
<text text-anchor="start" x="824.71" y="-374.73" font-family="Helvetica,sans-Serif" font-size="32.00" fill="#29235c"> &#160;&#160;&#160;</text>
<text text-anchor="start" x="1013.6" y="-374.73" font-family="Helvetica,sans-Serif" font-style="italic" font-size="32.00" fill="#29235c">serial4</text>
<polygon fill="#e7e2dd" stroke="transparent" points="788.82,-293.53 788.82,-353.53 1118.82,-353.53 1118.82,-293.53 788.82,-293.53"/>
<polygon fill="none" stroke="#29235c" points="788.82,-293.53 788.82,-353.53 1118.82,-353.53 1118.82,-293.53 788.82,-293.53"/>
<text text-anchor="start" x="799.82" y="-313.73" font-family="Helvetica,sans-Serif" font-size="32.00" fill="#29235c">userID &#160;&#160;&#160;</text>
<text text-anchor="start" x="1017.16" y="-314.73" font-family="Helvetica,sans-Serif" font-style="italic" font-size="32.00" fill="#29235c">int4</text>
<text text-anchor="start" x="1068.73" y="-314.73" font-family="Helvetica,sans-Serif" font-size="32.00" fill="#29235c"> </text>
<text text-anchor="start" x="1077.63" y="-314.73" font-family="Helvetica,sans-Serif" font-weight="bold" font-size="32.00" fill="#29235c">(!)</text>
<polygon fill="#e7e2dd" stroke="transparent" points="788.82,-233.53 788.82,-293.53 1118.82,-293.53 1118.82,-233.53 788.82,-233.53"/>
<polygon fill="none" stroke="#29235c" points="788.82,-233.53 788.82,-293.53 1118.82,-293.53 1118.82,-233.53 788.82,-233.53"/>
<text text-anchor="start" x="799.82" y="-253.73" font-family="Helvetica,sans-Serif" font-size="32.00" fill="#29235c">text &#160;&#160;&#160;</text>
<text text-anchor="start" x="1017.16" y="-254.73" font-family="Helvetica,sans-Serif" font-style="italic" font-size="32.00" fill="#29235c">text</text>
<text text-anchor="start" x="1068.73" y="-254.73" font-family="Helvetica,sans-Serif" font-size="32.00" fill="#29235c"> </text>
<text text-anchor="start" x="1077.63" y="-254.73" font-family="Helvetica,sans-Serif" font-weight="bold" font-size="32.00" fill="#29235c">(!)</text>
<polygon fill="#e7e2dd" stroke="transparent" points="788.82,-173.53 788.82,-233.53 1118.82,-233.53 1118.82,-173.53 788.82,-173.53"/>
<polygon fill="none" stroke="#29235c" points="788.82,-173.53 788.82,-233.53 1118.82,-233.53 1118.82,-173.53 788.82,-173.53"/>
<text text-anchor="start" x="799.41" y="-193.73" font-family="Helvetica,sans-Serif" font-size="32.00" fill="#29235c">date &#160;&#160;&#160;</text>
<text text-anchor="start" x="896.55" y="-194.73" font-family="Helvetica,sans-Serif" font-style="italic" font-size="32.00" fill="#29235c">timestamptz</text>
<text text-anchor="start" x="1069" y="-194.73" font-family="Helvetica,sans-Serif" font-size="32.00" fill="#29235c"> </text>
<text text-anchor="start" x="1077.9" y="-194.73" font-family="Helvetica,sans-Serif" font-weight="bold" font-size="32.00" fill="#29235c">(!)</text>
<polygon fill="none" stroke="#29235c" stroke-width="2" points="787.82,-172.53 787.82,-474.53 1119.82,-474.53 1119.82,-172.53 787.82,-172.53"/>
</g>
<!-- entry&#45;&gt;user -->
<!-- entry&#45;&gt;user -->
<g id="edge6" class="edge">
<title>entry:e&#45;&gt;user:w</title>
<path fill="none" stroke="#29235c" stroke-width="3" d="M1119.82,-323.53C1249.67,-323.53 1254.47,-428.96 1307.38,-547.53 1384.89,-721.26 1242.53,-1385.91 1420.78,-1409.87"/>
<polygon fill="#29235c" stroke="#29235c" stroke-width="3" points="1420.74,-1413.37 1430.95,-1410.53 1421.2,-1406.39 1420.74,-1413.37"/>
<text text-anchor="middle" x="1422.05" y="-1381.73" font-family="Helvetica,sans-Serif" font-size="32.00" fill="#29235c">1</text>
<text text-anchor="middle" x="1110.93" y="-333.13" font-family="Helvetica,sans-Serif" font-size="32.00" fill="#29235c">1</text>
</g>
<!-- emotion -->
<g id="emotion" class="node">
<title>emotion</title>
<ellipse fill="none" stroke="black" stroke-width="0" cx="282.14" cy="-535.53" rx="186.85" ry="172.57"/>
<polygon fill="#1d71b8" stroke="transparent" points="152.14,-595.53 152.14,-655.53 412.14,-655.53 412.14,-595.53 152.14,-595.53"/>
<polygon fill="none" stroke="#29235c" points="152.14,-595.53 152.14,-655.53 412.14,-655.53 412.14,-595.53 152.14,-595.53"/>
<text text-anchor="start" x="162.99" y="-616.73" font-family="Helvetica,sans-Serif" font-weight="bold" font-size="32.00" fill="#ffffff"> &#160;&#160;&#160;&#160;&#160;&#160;emotion &#160;&#160;&#160;&#160;&#160;&#160;</text>
<polygon fill="#e7e2dd" stroke="transparent" points="152.14,-535.53 152.14,-595.53 412.14,-595.53 412.14,-535.53 152.14,-535.53"/>
<polygon fill="none" stroke="#29235c" points="152.14,-535.53 152.14,-595.53 412.14,-595.53 412.14,-535.53 152.14,-535.53"/>
<text text-anchor="start" x="163.14" y="-556.73" font-family="Helvetica,sans-Serif" font-weight="bold" font-size="32.00" fill="#29235c">id</text>
<text text-anchor="start" x="188.03" y="-556.73" font-family="Helvetica,sans-Serif" font-size="32.00" fill="#29235c"> &#160;&#160;&#160;</text>
<text text-anchor="start" x="349.56" y="-556.73" font-family="Helvetica,sans-Serif" font-style="italic" font-size="32.00" fill="#29235c">int4</text>
<polygon fill="#e7e2dd" stroke="transparent" points="152.14,-475.53 152.14,-535.53 412.14,-535.53 412.14,-475.53 152.14,-475.53"/>
<polygon fill="none" stroke="#29235c" points="152.14,-475.53 152.14,-535.53 412.14,-535.53 412.14,-475.53 152.14,-475.53"/>
<text text-anchor="start" x="163.14" y="-495.73" font-family="Helvetica,sans-Serif" font-size="32.00" fill="#29235c">happy &#160;&#160;&#160;</text>
<text text-anchor="start" x="301.58" y="-496.73" font-family="Helvetica,sans-Serif" font-style="italic" font-size="32.00" fill="#29235c">float</text>
<text text-anchor="start" x="362.04" y="-496.73" font-family="Helvetica,sans-Serif" font-size="32.00" fill="#29235c"> </text>
<text text-anchor="start" x="370.94" y="-496.73" font-family="Helvetica,sans-Serif" font-weight="bold" font-size="32.00" fill="#29235c">(!)</text>
<polygon fill="#e7e2dd" stroke="transparent" points="152.14,-415.53 152.14,-475.53 412.14,-475.53 412.14,-415.53 152.14,-415.53"/>
<polygon fill="none" stroke="#29235c" points="152.14,-415.53 152.14,-475.53 412.14,-475.53 412.14,-415.53 152.14,-415.53"/>
<text text-anchor="start" x="163.14" y="-435.73" font-family="Helvetica,sans-Serif" font-size="32.00" fill="#29235c">sad &#160;&#160;&#160;</text>
<text text-anchor="start" x="301.58" y="-436.73" font-family="Helvetica,sans-Serif" font-style="italic" font-size="32.00" fill="#29235c">float</text>
<text text-anchor="start" x="362.04" y="-436.73" font-family="Helvetica,sans-Serif" font-size="32.00" fill="#29235c"> </text>
<text text-anchor="start" x="370.94" y="-436.73" font-family="Helvetica,sans-Serif" font-weight="bold" font-size="32.00" fill="#29235c">(!)</text>
<polygon fill="none" stroke="#29235c" stroke-width="2" points="151.14,-414.53 151.14,-656.53 413.14,-656.53 413.14,-414.53 151.14,-414.53"/>
</g>
<!-- emotion&#45;&gt;entry -->
<!-- emotion&#45;&gt;entry -->
<g id="edge8" class="edge">
<title>emotion:e&#45;&gt;entry:w</title>
<path fill="none" stroke="#29235c" stroke-width="3" d="M413.14,-565.53C594.83,-565.53 602.46,-390.23 777.7,-383.72"/>
<polygon fill="#29235c" stroke="#29235c" stroke-width="3" points="777.89,-387.22 787.82,-383.53 777.76,-380.22 777.89,-387.22"/>
<text text-anchor="middle" x="778.93" y="-393.13" font-family="Helvetica,sans-Serif" font-size="32.00" fill="#29235c">1</text>
<text text-anchor="middle" x="404.24" y="-575.13" font-family="Helvetica,sans-Serif" font-size="32.00" fill="#29235c">1</text>
</g>
<!-- topic -->
<g id="topic" class="node">
<title>topic</title>
<ellipse fill="none" stroke="black" stroke-width="0" cx="282.14" cy="-172.53" rx="211.35" ry="172.57"/>
<polygon fill="#1d71b8" stroke="transparent" points="135.14,-232.53 135.14,-292.53 430.14,-292.53 430.14,-232.53 135.14,-232.53"/>
<polygon fill="none" stroke="#29235c" points="135.14,-232.53 135.14,-292.53 430.14,-292.53 430.14,-232.53 135.14,-232.53"/>
<text text-anchor="start" x="186.6" y="-253.73" font-family="Helvetica,sans-Serif" font-weight="bold" font-size="32.00" fill="#ffffff"> &#160;&#160;&#160;&#160;&#160;&#160;topic &#160;&#160;&#160;&#160;&#160;&#160;</text>
<polygon fill="#e7e2dd" stroke="transparent" points="135.14,-172.53 135.14,-232.53 430.14,-232.53 430.14,-172.53 135.14,-172.53"/>
<polygon fill="none" stroke="#29235c" points="135.14,-172.53 135.14,-232.53 430.14,-232.53 430.14,-172.53 135.14,-172.53"/>
<text text-anchor="start" x="146.14" y="-193.73" font-family="Helvetica,sans-Serif" font-weight="bold" font-size="32.00" fill="#29235c">id</text>
<text text-anchor="start" x="171.03" y="-193.73" font-family="Helvetica,sans-Serif" font-size="32.00" fill="#29235c"> &#160;&#160;&#160;</text>
<text text-anchor="start" x="367.56" y="-193.73" font-family="Helvetica,sans-Serif" font-style="italic" font-size="32.00" fill="#29235c">int4</text>
<polygon fill="#e7e2dd" stroke="transparent" points="135.14,-112.53 135.14,-172.53 430.14,-172.53 430.14,-112.53 135.14,-112.53"/>
<polygon fill="none" stroke="#29235c" points="135.14,-112.53 135.14,-172.53 430.14,-172.53 430.14,-112.53 135.14,-112.53"/>
<text text-anchor="start" x="146" y="-132.73" font-family="Helvetica,sans-Serif" font-size="32.00" fill="#29235c">friendship &#160;&#160;&#160;</text>
<text text-anchor="start" x="319.86" y="-133.73" font-family="Helvetica,sans-Serif" font-style="italic" font-size="32.00" fill="#29235c">float</text>
<text text-anchor="start" x="380.32" y="-133.73" font-family="Helvetica,sans-Serif" font-size="32.00" fill="#29235c"> </text>
<text text-anchor="start" x="389.21" y="-133.73" font-family="Helvetica,sans-Serif" font-weight="bold" font-size="32.00" fill="#29235c">(!)</text>
<polygon fill="#e7e2dd" stroke="transparent" points="135.14,-52.53 135.14,-112.53 430.14,-112.53 430.14,-52.53 135.14,-52.53"/>
<polygon fill="none" stroke="#29235c" points="135.14,-52.53 135.14,-112.53 430.14,-112.53 430.14,-52.53 135.14,-52.53"/>
<text text-anchor="start" x="146.14" y="-72.73" font-family="Helvetica,sans-Serif" font-size="32.00" fill="#29235c">family &#160;&#160;&#160;</text>
<text text-anchor="start" x="319.58" y="-73.73" font-family="Helvetica,sans-Serif" font-style="italic" font-size="32.00" fill="#29235c">float</text>
<text text-anchor="start" x="380.04" y="-73.73" font-family="Helvetica,sans-Serif" font-size="32.00" fill="#29235c"> </text>
<text text-anchor="start" x="388.94" y="-73.73" font-family="Helvetica,sans-Serif" font-weight="bold" font-size="32.00" fill="#29235c">(!)</text>
<polygon fill="none" stroke="#29235c" stroke-width="2" points="133.64,-51.53 133.64,-293.53 430.64,-293.53 430.64,-51.53 133.64,-51.53"/>
</g>
<!-- topic&#45;&gt;entry -->
<!-- topic&#45;&gt;entry -->
<g id="edge10" class="edge">
<title>topic:e&#45;&gt;entry:w</title>
<path fill="none" stroke="#29235c" stroke-width="3" d="M431.14,-202.53C605.43,-202.53 609.94,-376.53 777.61,-383.33"/>
<polygon fill="#29235c" stroke="#29235c" stroke-width="3" points="777.76,-386.83 787.82,-383.53 777.9,-379.83 777.76,-386.83"/>
<text text-anchor="middle" x="796.72" y="-393.13" font-family="Helvetica,sans-Serif" font-size="32.00" fill="#29235c">1</text>
<text text-anchor="middle" x="422.24" y="-212.13" font-family="Helvetica,sans-Serif" font-size="32.00" fill="#29235c">1</text>
</g>
</g>
</svg>
