<svg id="Layer_1" data-name="Layer 1" xmlns="http://www.w3.org/2000/svg" width="699.6" height="715.79" viewBox="0 0 699.6 715.79"><defs><style>.cls-1{fill:#20b4d5;}</style></defs><title>hasura_logo_freelogovectors.net</title><path class="cls-1" d="M714.87,260.84c20.82-64.2,8.3-192.28-32-239.56a12.22,12.22,0,0,0-19.52,1.53l-49.69,77.25a38.5,38.5,0,0,1-51.08,8.21,345.86,345.86,0,0,0-375.08,0,38.61,38.61,0,0,1-51.08-8.21L86.69,22.81a12.26,12.26,0,0,0-19.52-1.53c-40.34,47.36-52.86,175.44-32,239.56a134.11,134.11,0,0,1,4.71,65.82c-4.06,21.75-8.13,48-8.13,66.29,0,187.78,153.71,339.94,343.21,339.94S718.13,580.65,718.13,393c0-18.28-4.07-44.54-8.14-66.29A135.24,135.24,0,0,1,714.87,260.84ZM374.92,657c-146.56,0-265.7-118.09-265.7-263.25,0-4.75.16-9.43.4-14.1,5.29-98.92,66-183.42,151.76-223.7a267.49,267.49,0,0,1,227.24.08c85.8,40.28,146.47,124.86,151.76,223.7.24,4.67.4,9.43.4,14.1C640.7,538.92,521.47,657,374.92,657Z" transform="translate(-25.2 -17.11)"/><path class="cls-1" d="M490.08,495.1,422.17,378.45l-58.23-97.23a7.65,7.65,0,0,0-6.59-3.7H301.72a7.65,7.65,0,0,0-6.67,3.86,7.46,7.46,0,0,0,.08,7.58l55.71,92.71L276.1,494.61a7.54,7.54,0,0,0,6.43,11.68h56a7.62,7.62,0,0,0,6.43-3.46l40.42-62.51,36.27,62.27a7.71,7.71,0,0,0,6.59,3.78h55.22a7.5,7.5,0,0,0,6.59-3.78A7.29,7.29,0,0,0,490.08,495.1Z" transform="translate(-25.2 -17.11)"/></svg>